<?xml version="1.0" encoding="UTF-8"?>
<svg xmlns="http://www.w3.org/2000/svg" xmlns:xlink="http://www.w3.org/1999/xlink" width="24px" height="24px" viewBox="0 0 24 24" version="1.1">
<g id="surface1">
<path style="fill:none;stroke-width:32;stroke-linecap:round;stroke-linejoin:miter;stroke:rgb(0%,0%,0%);stroke-opacity:1;stroke-miterlimit:10;" d="M 215.083333 156.916667 C 210.166667 132.916667 204.333333 100.666667 204.333333 83.666667 C 204.25 69.916667 209.666667 56.75 219.333333 47.083333 C 229.083333 37.333333 242.25 31.916667 256 32 C 284.583333 32 307.666667 55.666667 307.666667 83.666667 C 307.666667 100.166667 301.833333 132.666667 296.916667 156.916667 " transform="matrix(0.046875,0,0,0.046875,0,0)"/>
<path style="fill:none;stroke-width:32;stroke-linecap:round;stroke-linejoin:miter;stroke:rgb(0%,0%,0%);stroke-opacity:1;stroke-miterlimit:10;" d="M 215.083333 355.083333 C 210.166667 379.166667 204.333333 411.25 204.333333 428.333333 C 204.25 442.083333 209.666667 455.25 219.333333 464.916667 C 229.083333 474.666667 242.25 480.083333 256 480 C 284.583333 480 307.666667 456.333333 307.666667 428.333333 C 307.666667 411.75 301.833333 379.416667 296.916667 355.083333 " transform="matrix(0.046875,0,0,0.046875,0,0)"/>
<path style="fill:none;stroke-width:32;stroke-linecap:round;stroke-linejoin:miter;stroke:rgb(0%,0%,0%);stroke-opacity:1;stroke-miterlimit:10;" d="M 355.083333 215.083333 C 379.166667 210.166667 411.25 204.333333 428.333333 204.333333 C 442.083333 204.25 455.25 209.666667 464.916667 219.333333 C 474.666667 229.083333 480.083333 242.25 480 256 C 480 284.583333 456.333333 307.666667 428.333333 307.666667 C 411.833333 307.666667 379.333333 301.833333 355.083333 296.916667 " transform="matrix(0.046875,0,0,0.046875,0,0)"/>
<path style="fill:none;stroke-width:32;stroke-linecap:round;stroke-linejoin:miter;stroke:rgb(0%,0%,0%);stroke-opacity:1;stroke-miterlimit:10;" d="M 156.916667 215.083333 C 132.916667 210.166667 100.666667 204.333333 83.666667 204.333333 C 69.916667 204.25 56.75 209.666667 47.083333 219.333333 C 37.333333 229.083333 31.916667 242.25 32 256 C 32 284.583333 55.666667 307.666667 83.666667 307.666667 C 100.166667 307.666667 132.666667 301.833333 156.916667 296.916667 " transform="matrix(0.046875,0,0,0.046875,0,0)"/>
<path style="fill:none;stroke-width:32;stroke-linecap:round;stroke-linejoin:miter;stroke:rgb(0%,0%,0%);stroke-opacity:1;stroke-miterlimit:10;" d="M 296.916667 156.916667 C 310.5 136.416667 329.25 109.666667 341.25 97.583333 C 350.916667 87.833333 364.083333 82.333333 377.833333 82.333333 C 391.583333 82.333333 404.75 87.833333 414.416667 97.583333 C 434.583333 117.833333 434.166667 150.916667 414.416667 170.75 C 402.75 182.416667 375.75 201.416667 355.083333 215.083333 " transform="matrix(0.046875,0,0,0.046875,0,0)"/>
<path style="fill:none;stroke-width:32;stroke-linecap:round;stroke-linejoin:miter;stroke:rgb(0%,0%,0%);stroke-opacity:1;stroke-miterlimit:10;" d="M 156.916667 296.916667 C 136.416667 310.5 109.666667 329.25 97.583333 341.25 C 87.833333 350.916667 82.333333 364.083333 82.333333 377.833333 C 82.333333 391.583333 87.833333 404.75 97.583333 414.416667 C 117.833333 434.583333 150.916667 434.166667 170.75 414.416667 C 182.416667 402.75 201.416667 375.75 215.083333 355.083333 " transform="matrix(0.046875,0,0,0.046875,0,0)"/>
<path style="fill:none;stroke-width:32;stroke-linecap:round;stroke-linejoin:miter;stroke:rgb(0%,0%,0%);stroke-opacity:1;stroke-miterlimit:10;" d="M 355.083333 296.916667 C 375.583333 310.5 402.333333 329.25 414.416667 341.25 C 424.166667 350.916667 429.666667 364.083333 429.666667 377.833333 C 429.666667 391.583333 424.166667 404.75 414.416667 414.416667 C 394.166667 434.583333 361.083333 434.166667 341.25 414.416667 C 329.583333 402.666667 310.666667 375.75 296.916667 355.083333 " transform="matrix(0.046875,0,0,0.046875,0,0)"/>
<path style="fill:none;stroke-width:32;stroke-linecap:round;stroke-linejoin:miter;stroke:rgb(0%,0%,0%);stroke-opacity:1;stroke-miterlimit:10;" d="M 215.083333 156.916667 C 201.583333 136.5 182.666667 109.583333 170.75 97.583333 C 161.083333 87.833333 147.916667 82.333333 134.166667 82.333333 C 120.416667 82.333333 107.25 87.833333 97.583333 97.583333 C 77.416667 117.833333 77.833333 150.916667 97.583333 170.75 C 109.25 182.333333 136.333333 201.416667 156.916667 215.083333 " transform="matrix(0.046875,0,0,0.046875,0,0)"/>
<path style="fill:none;stroke-width:32;stroke-linecap:round;stroke-linejoin:miter;stroke:rgb(0%,0%,0%);stroke-opacity:1;stroke-miterlimit:10;" d="M 320 256 C 320 220.666667 291.333333 192 256 192 C 220.666667 192 192 220.666667 192 256 C 192 291.333333 220.666667 320 256 320 C 291.333333 320 320 291.333333 320 256 Z M 320 256 " transform="matrix(0.046875,0,0,0.046875,0,0)"/>
</g>
</svg>
